<svg width="281" height="42" viewBox="0 0 281 42" fill="none" xmlns="http://www.w3.org/2000/svg">
<path d="M46.176 18.7927C45.768 18.5047 45.332 18.2807 44.868 18.1207C44.404 17.9607 43.908 17.8807 43.38 17.8807C42.716 17.8807 42.108 18.0087 41.556 18.2647C41.004 18.5127 40.528 18.8527 40.128 19.2847C39.736 19.7167 39.428 20.2247 39.204 20.8087C38.98 21.3847 38.868 22.0007 38.868 22.6567C38.868 23.3127 38.98 23.9287 39.204 24.5047C39.428 25.0807 39.736 25.5847 40.128 26.0167C40.528 26.4407 41.004 26.7767 41.556 27.0247C42.108 27.2727 42.716 27.3967 43.38 27.3967C43.66 27.3967 43.936 27.3767 44.208 27.3367C44.488 27.2967 44.784 27.2447 45.096 27.1807V24.0367C45.096 23.8847 45.14 23.7607 45.228 23.6647C45.316 23.5607 45.448 23.5087 45.624 23.5087H48.888C49.008 23.5087 49.136 23.5567 49.272 23.6527C49.408 23.7487 49.476 23.8767 49.476 24.0367V29.8447C49.476 30.0607 49.36 30.2367 49.128 30.3727C48.752 30.6287 48.336 30.8487 47.88 31.0327C47.424 31.2167 46.948 31.3687 46.452 31.4887C45.956 31.6087 45.452 31.6967 44.94 31.7527C44.436 31.8167 43.944 31.8487 43.464 31.8487C42.616 31.8487 41.8 31.7407 41.016 31.5247C40.24 31.3087 39.512 31.0007 38.832 30.6007C38.152 30.2007 37.532 29.7247 36.972 29.1727C36.42 28.6127 35.944 27.9967 35.544 27.3247C35.144 26.6447 34.836 25.9167 34.62 25.1407C34.404 24.3567 34.296 23.5407 34.296 22.6927C34.296 21.8447 34.404 21.0327 34.62 20.2567C34.836 19.4727 35.144 18.7407 35.544 18.0607C35.944 17.3727 36.42 16.7487 36.972 16.1887C37.532 15.6287 38.152 15.1527 38.832 14.7607C39.512 14.3607 40.24 14.0527 41.016 13.8367C41.8 13.6127 42.616 13.5007 43.464 13.5007C44.424 13.5007 45.328 13.6367 46.176 13.9087C47.032 14.1727 47.836 14.5567 48.588 15.0607C48.724 15.1407 48.828 15.2487 48.9 15.3847C48.972 15.5127 48.956 15.6607 48.852 15.8287L46.908 18.6367C46.804 18.7647 46.7 18.8527 46.596 18.9007C46.492 18.9407 46.352 18.9047 46.176 18.7927ZM52.2984 17.2327C52.2984 17.0807 52.3264 16.9487 52.3824 16.8367C52.4384 16.7247 52.5104 16.6327 52.5984 16.5607C52.6944 16.4887 52.7984 16.4367 52.9104 16.4047C53.0304 16.3647 53.1464 16.3447 53.2584 16.3447H55.0704C55.2704 16.3447 55.4304 16.4047 55.5504 16.5247C55.6704 16.6447 55.7704 16.7967 55.8504 16.9807C55.9384 17.1647 56.0144 17.3687 56.0784 17.5927C56.1424 17.8167 56.2184 18.0327 56.3064 18.2407C56.5464 17.9767 56.7824 17.7167 57.0144 17.4607C57.2544 17.2047 57.5104 16.9767 57.7824 16.7767C58.0544 16.5767 58.3504 16.4167 58.6704 16.2967C58.9984 16.1687 59.3704 16.1047 59.7864 16.1047C60.2184 16.1047 60.6024 16.1367 60.9384 16.2007C61.2824 16.2647 61.6064 16.3607 61.9104 16.4887C62.2144 16.6087 62.5144 16.7647 62.8104 16.9567C63.1144 17.1487 63.4424 17.3727 63.7944 17.6287C64.1384 17.8287 64.3104 18.0647 64.3104 18.3367C64.3104 18.5127 64.2424 18.7167 64.1064 18.9487L63.0144 20.8087C62.7984 21.1207 62.5304 21.2767 62.2104 21.2767C62.0504 21.2767 61.8704 21.2327 61.6704 21.1447C61.3264 20.8087 60.9744 20.5607 60.6144 20.4007C60.2624 20.2327 59.8584 20.1487 59.4024 20.1487C59.0904 20.1487 58.8144 20.1927 58.5744 20.2807C58.3424 20.3687 58.1304 20.4927 57.9384 20.6527C57.7464 20.8127 57.5664 21.0047 57.3984 21.2287C57.2304 21.4527 57.0624 21.7007 56.8944 21.9727V30.6607C56.8944 30.9647 56.8184 31.1967 56.6664 31.3567C56.5224 31.5087 56.2784 31.5847 55.9344 31.5847H53.2344C52.6104 31.5847 52.2984 31.2767 52.2984 30.6607V17.2327ZM81.2706 30.6967C81.2706 30.8327 81.2466 30.9647 81.1986 31.0927C81.1506 31.2127 81.0706 31.3087 80.9586 31.3807C80.8706 31.4687 80.7666 31.5247 80.6466 31.5487C80.5266 31.5727 80.4226 31.5847 80.3346 31.5847H77.9706C77.8026 31.5847 77.6666 31.5647 77.5626 31.5247C77.4586 31.4767 77.3746 31.4127 77.3106 31.3327C77.2466 31.2527 77.1906 31.1567 77.1426 31.0447C77.1026 30.9247 77.0586 30.7967 77.0106 30.6607L76.8546 30.1207C76.6386 30.3367 76.3906 30.5487 76.1106 30.7567C75.8386 30.9647 75.5346 31.1527 75.1986 31.3207C74.8706 31.4807 74.5146 31.6087 74.1306 31.7047C73.7546 31.8087 73.3626 31.8607 72.9546 31.8607C72.2266 31.8607 71.5266 31.7687 70.8546 31.5847C70.1906 31.4007 69.5666 31.1407 68.9826 30.8047C68.4066 30.4607 67.8826 30.0527 67.4106 29.5807C66.9386 29.1007 66.5306 28.5687 66.1866 27.9847C65.8506 27.4007 65.5906 26.7727 65.4066 26.1007C65.2226 25.4207 65.1306 24.7127 65.1306 23.9767C65.1306 22.8647 65.3346 21.8327 65.7426 20.8807C66.1506 19.9207 66.7066 19.0887 67.4106 18.3847C68.1146 17.6727 68.9426 17.1167 69.8946 16.7167C70.8466 16.3087 71.8666 16.1047 72.9546 16.1047C73.4506 16.1047 73.9106 16.1607 74.3346 16.2727C74.7666 16.3847 75.1586 16.5367 75.5106 16.7287C75.8706 16.9207 76.1946 17.1527 76.4826 17.4247C76.7706 17.6887 77.0226 17.9767 77.2386 18.2887L77.5866 17.1967C77.6666 16.9967 77.7306 16.8367 77.7786 16.7167C77.8346 16.5887 77.8906 16.4967 77.9466 16.4407C78.0106 16.3767 78.0866 16.3367 78.1746 16.3207C78.2626 16.2967 78.3866 16.2847 78.5466 16.2847H80.3346C80.4226 16.2847 80.5266 16.2967 80.6466 16.3207C80.7666 16.3447 80.8706 16.4007 80.9586 16.4887C81.0706 16.5767 81.1506 16.6767 81.1986 16.7887C81.2466 16.9007 81.2706 17.0287 81.2706 17.1727V30.6967ZM69.4506 23.9767C69.4506 24.5047 69.5306 25.0007 69.6906 25.4647C69.8586 25.9207 70.0946 26.3167 70.3986 26.6527C70.7026 26.9887 71.0666 27.2567 71.4906 27.4567C71.9226 27.6487 72.3986 27.7447 72.9186 27.7447C73.4546 27.7447 73.9506 27.6487 74.4066 27.4567C74.8706 27.2567 75.2706 26.9887 75.6066 26.6527C75.9506 26.3167 76.2186 25.9207 76.4106 25.4647C76.6026 25.0007 76.6986 24.5047 76.6986 23.9767C76.6986 23.4647 76.6026 22.9767 76.4106 22.5127C76.2186 22.0487 75.9506 21.6407 75.6066 21.2887C75.2706 20.9367 74.8706 20.6607 74.4066 20.4607C73.9506 20.2527 73.4546 20.1487 72.9186 20.1487C72.3986 20.1487 71.9226 20.2527 71.4906 20.4607C71.0666 20.6607 70.7026 20.9367 70.3986 21.2887C70.0946 21.6407 69.8586 22.0487 69.6906 22.5127C69.5306 22.9767 69.4506 23.4647 69.4506 23.9767ZM84.2961 16.4887C84.4001 16.4007 84.5081 16.3447 84.6201 16.3207C84.7321 16.2967 84.8401 16.2847 84.9441 16.2847H86.7561C86.9081 16.2847 87.0321 16.3087 87.1281 16.3567C87.2321 16.4047 87.3161 16.4727 87.3801 16.5607C87.4441 16.6407 87.4961 16.7367 87.5361 16.8487C87.5841 16.9527 87.6281 17.0687 87.6681 17.1967L88.1721 18.6487C88.3961 18.3607 88.6201 18.0687 88.8441 17.7727C89.0761 17.4687 89.3481 17.1967 89.6601 16.9567C89.9721 16.7087 90.3441 16.5047 90.7761 16.3447C91.2081 16.1847 91.7361 16.1047 92.3601 16.1047C93.4561 16.1047 94.4641 16.3087 95.3841 16.7167C96.3121 17.1167 97.1081 17.6727 97.7721 18.3847C98.4441 19.0887 98.9681 19.9207 99.3441 20.8807C99.7201 21.8327 99.9081 22.8647 99.9081 23.9767C99.9081 25.0807 99.7201 26.1127 99.3441 27.0727C98.9681 28.0327 98.4441 28.8687 97.7721 29.5807C97.1081 30.2847 96.3121 30.8407 95.3841 31.2487C94.4641 31.6567 93.4561 31.8607 92.3601 31.8607C91.8401 31.8607 91.3921 31.7967 91.0161 31.6687C90.6401 31.5487 90.3041 31.3887 90.0081 31.1887C89.7201 30.9887 89.4641 30.7687 89.2401 30.5287C89.0161 30.2887 88.7961 30.0487 88.5801 29.8087V35.4007C88.5801 35.6407 88.5081 35.8447 88.3641 36.0127C88.2201 36.1807 87.9961 36.2647 87.6921 36.2647H84.9441C84.8481 36.2647 84.7441 36.2447 84.6321 36.2047C84.5201 36.1647 84.4161 36.1087 84.3201 36.0367C84.2241 35.9647 84.1441 35.8727 84.0801 35.7607C84.0161 35.6567 83.9841 35.5367 83.9841 35.4007V17.1727C83.9841 17.0127 84.0121 16.8807 84.0681 16.7767C84.1321 16.6727 84.2081 16.5767 84.2961 16.4887ZM95.5041 23.9767C95.5041 23.4647 95.4201 22.9807 95.2521 22.5247C95.0841 22.0607 94.8481 21.6567 94.5441 21.3127C94.2401 20.9687 93.8761 20.6967 93.4521 20.4967C93.0281 20.2967 92.5601 20.1967 92.0481 20.1967C91.5441 20.1967 91.0641 20.2927 90.6081 20.4847C90.1601 20.6687 89.7641 20.9247 89.4201 21.2527C89.0841 21.5727 88.8081 21.9527 88.5921 22.3927C88.3841 22.8327 88.2681 23.3007 88.2441 23.7967V23.9767C88.2441 24.5047 88.3441 25.0007 88.5441 25.4647C88.7441 25.9287 89.0161 26.3327 89.3601 26.6767C89.7041 27.0127 90.1081 27.2807 90.5721 27.4807C91.0361 27.6807 91.5281 27.7807 92.0481 27.7807C92.5601 27.7807 93.0281 27.6807 93.4521 27.4807C93.8761 27.2807 94.2401 27.0127 94.5441 26.6767C94.8481 26.3327 95.0841 25.9287 95.2521 25.4647C95.4201 25.0007 95.5041 24.5047 95.5041 23.9767ZM114.915 29.7607C114.211 30.4087 113.419 30.9167 112.539 31.2847C111.659 31.6447 110.727 31.8247 109.743 31.8247C108.647 31.8247 107.611 31.6247 106.635 31.2247C105.659 30.8247 104.803 30.2727 104.067 29.5687C103.331 28.8567 102.747 28.0207 102.315 27.0607C101.883 26.1007 101.667 25.0567 101.667 23.9287C101.667 23.2247 101.751 22.5447 101.919 21.8887C102.095 21.2247 102.339 20.6047 102.651 20.0287C102.971 19.4527 103.355 18.9247 103.803 18.4447C104.259 17.9567 104.767 17.5407 105.327 17.1967C105.887 16.8527 106.495 16.5847 107.151 16.3927C107.807 16.2007 108.499 16.1047 109.227 16.1047C109.891 16.1047 110.535 16.1927 111.159 16.3687C111.783 16.5447 112.367 16.7927 112.911 17.1127C113.463 17.4327 113.967 17.8167 114.423 18.2647C114.879 18.7127 115.271 19.2047 115.599 19.7407C115.927 20.2687 116.179 20.8367 116.355 21.4447C116.539 22.0447 116.631 22.6647 116.631 23.3047C116.631 23.7207 116.623 24.0607 116.607 24.3247C116.599 24.5887 116.539 24.8007 116.427 24.9607C116.315 25.1127 116.127 25.2207 115.863 25.2847C115.607 25.3407 115.227 25.3687 114.723 25.3687H106.083C106.163 25.8807 106.323 26.3087 106.563 26.6527C106.811 26.9967 107.095 27.2727 107.415 27.4807C107.735 27.6807 108.075 27.8247 108.435 27.9127C108.795 28.0007 109.135 28.0447 109.455 28.0447C109.743 28.0447 110.039 28.0167 110.343 27.9607C110.647 27.8967 110.939 27.8167 111.219 27.7207C111.507 27.6167 111.767 27.5007 111.999 27.3727C112.239 27.2367 112.431 27.0967 112.575 26.9527C112.703 26.8487 112.811 26.7727 112.899 26.7247C112.995 26.6687 113.095 26.6407 113.199 26.6407C113.303 26.6407 113.407 26.6767 113.511 26.7487C113.623 26.8207 113.747 26.9247 113.883 27.0607L115.155 28.5007C115.243 28.6047 115.299 28.7007 115.323 28.7887C115.347 28.8687 115.359 28.9527 115.359 29.0407C115.359 29.2007 115.315 29.3407 115.227 29.4607C115.139 29.5727 115.035 29.6727 114.915 29.7607ZM109.143 19.7647C108.831 19.7647 108.527 19.8287 108.231 19.9567C107.943 20.0767 107.671 20.2407 107.415 20.4487C107.159 20.6567 106.927 20.8927 106.719 21.1567C106.519 21.4207 106.355 21.6887 106.227 21.9607H112.359C112.191 21.6487 112.007 21.3607 111.807 21.0967C111.615 20.8327 111.391 20.6007 111.135 20.4007C110.887 20.2007 110.599 20.0447 110.271 19.9327C109.951 19.8207 109.575 19.7647 109.143 19.7647ZM126.825 14.3167C126.825 14.1487 126.869 14.0167 126.957 13.9207C127.053 13.8167 127.185 13.7647 127.353 13.7647H139.269C139.445 13.7647 139.581 13.8167 139.677 13.9207C139.773 14.0247 139.821 14.1647 139.821 14.3407V17.3167C139.821 17.4527 139.773 17.5847 139.677 17.7127C139.581 17.8327 139.441 17.8927 139.257 17.8927H131.481V20.8567H137.481C137.633 20.8567 137.757 20.8927 137.853 20.9647C137.957 21.0367 138.009 21.1567 138.009 21.3247V23.9167C138.009 24.0287 137.965 24.1367 137.877 24.2407C137.789 24.3447 137.661 24.3967 137.493 24.3967H131.481V27.4567H139.545C139.905 27.4567 140.085 27.6407 140.085 28.0087V31.0327C140.085 31.1127 140.053 31.1847 139.989 31.2487C139.957 31.4727 139.793 31.5847 139.497 31.5847H127.353C127.193 31.5847 127.065 31.5447 126.969 31.4647C126.873 31.3767 126.825 31.2447 126.825 31.0687V14.3167ZM144.643 26.8447C144.859 27.0607 145.091 27.2447 145.339 27.3967C145.595 27.5407 145.839 27.6607 146.071 27.7567C146.303 27.8447 146.507 27.9087 146.683 27.9487C146.859 27.9887 146.979 28.0087 147.043 28.0087C147.195 28.0087 147.387 28.0047 147.619 27.9967C147.859 27.9807 148.087 27.9447 148.303 27.8887C148.519 27.8247 148.703 27.7247 148.855 27.5887C149.015 27.4527 149.095 27.2607 149.095 27.0127C149.095 26.7887 149.051 26.6127 148.963 26.4847C148.875 26.3487 148.747 26.2367 148.579 26.1487C148.411 26.0527 148.203 25.9687 147.955 25.8967C147.715 25.8247 147.443 25.7407 147.139 25.6447C146.179 25.3887 145.387 25.0807 144.763 24.7207C144.139 24.3607 143.643 23.9607 143.275 23.5207C142.915 23.0727 142.663 22.5927 142.519 22.0807C142.375 21.5687 142.303 21.0287 142.303 20.4607C142.303 19.7967 142.435 19.1927 142.699 18.6487C142.963 18.1047 143.339 17.6407 143.827 17.2567C144.315 16.8647 144.899 16.5647 145.579 16.3567C146.259 16.1407 147.015 16.0327 147.847 16.0327C148.351 16.0327 148.823 16.0767 149.263 16.1647C149.703 16.2447 150.123 16.3767 150.523 16.5607C150.923 16.7367 151.311 16.9687 151.687 17.2567C152.071 17.5367 152.451 17.8727 152.827 18.2647C152.963 18.4247 153.031 18.5767 153.031 18.7207C153.039 18.8567 152.951 19.0047 152.767 19.1647C152.455 19.4207 152.155 19.6727 151.867 19.9207C151.587 20.1687 151.295 20.4447 150.991 20.7487C150.895 20.8287 150.799 20.8807 150.703 20.9047C150.607 20.9207 150.515 20.9167 150.427 20.8927C150.339 20.8687 150.255 20.8287 150.175 20.7727C150.095 20.7167 150.023 20.6487 149.959 20.5687C149.679 20.2567 149.359 20.0487 148.999 19.9447C148.639 19.8327 148.303 19.7767 147.991 19.7767C147.599 19.7767 147.287 19.8447 147.055 19.9807C146.823 20.1167 146.715 20.3247 146.731 20.6047C146.747 20.8127 146.823 20.9767 146.959 21.0967C147.103 21.2087 147.275 21.3007 147.475 21.3727C147.683 21.4447 147.899 21.5047 148.123 21.5527C148.355 21.5927 148.567 21.6407 148.759 21.6967C149.479 21.9287 150.139 22.1807 150.739 22.4527C151.339 22.7247 151.859 23.0607 152.299 23.4607C152.739 23.8527 153.079 24.3247 153.319 24.8767C153.567 25.4287 153.691 26.1007 153.691 26.8927C153.691 27.6847 153.531 28.3927 153.211 29.0167C152.899 29.6407 152.467 30.1647 151.915 30.5887C151.363 31.0127 150.707 31.3367 149.947 31.5607C149.195 31.7847 148.383 31.8967 147.511 31.8967C147.015 31.8967 146.511 31.8527 145.999 31.7647C145.487 31.6767 144.991 31.5367 144.511 31.3447C144.031 31.1447 143.575 30.8927 143.143 30.5887C142.711 30.2767 142.327 29.9007 141.991 29.4607C141.903 29.3487 141.835 29.2327 141.787 29.1127C141.747 28.9847 141.727 28.8607 141.727 28.7407C141.735 28.6207 141.759 28.5127 141.799 28.4167C141.847 28.3127 141.919 28.2247 142.015 28.1527L143.563 26.6047C143.755 26.4447 143.923 26.3887 144.067 26.4367C144.219 26.4847 144.411 26.6207 144.643 26.8447ZM165.853 26.8927C165.965 26.8127 166.069 26.7647 166.165 26.7487C166.269 26.7247 166.349 26.7127 166.405 26.7127C166.541 26.7127 166.665 26.7407 166.777 26.7967C166.889 26.8527 167.005 26.9727 167.125 27.1567L168.469 29.1847C168.509 29.2487 168.545 29.3207 168.577 29.4007C168.617 29.4807 168.637 29.5447 168.637 29.5927C168.637 29.7767 168.577 29.9287 168.457 30.0487C168.345 30.1607 168.221 30.2607 168.085 30.3487C167.429 30.8047 166.709 31.1727 165.925 31.4527C165.149 31.7247 164.325 31.8607 163.453 31.8607C162.733 31.8607 162.037 31.7687 161.365 31.5847C160.701 31.4007 160.081 31.1407 159.505 30.8047C158.929 30.4607 158.401 30.0527 157.921 29.5807C157.441 29.1007 157.033 28.5687 156.697 27.9847C156.361 27.4007 156.097 26.7727 155.905 26.1007C155.721 25.4207 155.629 24.7127 155.629 23.9767C155.629 23.2407 155.721 22.5327 155.905 21.8527C156.097 21.1727 156.361 20.5447 156.697 19.9687C157.033 19.3847 157.441 18.8567 157.921 18.3847C158.401 17.9047 158.929 17.4967 159.505 17.1607C160.081 16.8247 160.701 16.5647 161.365 16.3807C162.037 16.1967 162.733 16.1047 163.453 16.1047C164.325 16.1047 165.129 16.2207 165.865 16.4527C166.609 16.6847 167.305 17.0287 167.953 17.4847L167.917 17.4487C168.093 17.5527 168.233 17.6767 168.337 17.8207C168.441 17.9567 168.493 18.1287 168.493 18.3367C168.493 18.4807 168.445 18.6287 168.349 18.7807L167.281 20.5927C167.057 20.9847 166.785 21.1807 166.465 21.1807C166.393 21.1807 166.305 21.1647 166.201 21.1327C166.097 21.0927 165.981 21.0287 165.853 20.9407C165.501 20.7087 165.121 20.5207 164.713 20.3767C164.313 20.2247 163.885 20.1487 163.429 20.1487C162.925 20.1487 162.461 20.2527 162.037 20.4607C161.613 20.6607 161.249 20.9367 160.945 21.2887C160.649 21.6407 160.417 22.0487 160.249 22.5127C160.081 22.9767 159.997 23.4647 159.997 23.9767C159.997 24.5047 160.081 25.0007 160.249 25.4647C160.417 25.9207 160.649 26.3167 160.945 26.6527C161.249 26.9887 161.613 27.2567 162.037 27.4567C162.461 27.6487 162.925 27.7447 163.429 27.7447C163.885 27.7447 164.313 27.6647 164.713 27.5047C165.113 27.3447 165.493 27.1407 165.853 26.8927ZM186.428 30.6967C186.428 30.8327 186.404 30.9647 186.356 31.0927C186.308 31.2127 186.228 31.3087 186.116 31.3807C186.028 31.4687 185.924 31.5247 185.804 31.5487C185.684 31.5727 185.58 31.5847 185.492 31.5847H183.128C182.96 31.5847 182.824 31.5647 182.72 31.5247C182.616 31.4767 182.532 31.4127 182.468 31.3327C182.404 31.2527 182.348 31.1567 182.3 31.0447C182.26 30.9247 182.216 30.7967 182.168 30.6607L182.012 30.1207C181.796 30.3367 181.548 30.5487 181.268 30.7567C180.996 30.9647 180.692 31.1527 180.356 31.3207C180.028 31.4807 179.672 31.6087 179.288 31.7047C178.912 31.8087 178.52 31.8607 178.112 31.8607C177.384 31.8607 176.684 31.7687 176.012 31.5847C175.348 31.4007 174.724 31.1407 174.14 30.8047C173.564 30.4607 173.04 30.0527 172.568 29.5807C172.096 29.1007 171.688 28.5687 171.344 27.9847C171.008 27.4007 170.748 26.7727 170.564 26.1007C170.38 25.4207 170.288 24.7127 170.288 23.9767C170.288 22.8647 170.492 21.8327 170.9 20.8807C171.308 19.9207 171.864 19.0887 172.568 18.3847C173.272 17.6727 174.1 17.1167 175.052 16.7167C176.004 16.3087 177.024 16.1047 178.112 16.1047C178.608 16.1047 179.068 16.1607 179.492 16.2727C179.924 16.3847 180.316 16.5367 180.668 16.7287C181.028 16.9207 181.352 17.1527 181.64 17.4247C181.928 17.6887 182.18 17.9767 182.396 18.2887L182.744 17.1967C182.824 16.9967 182.888 16.8367 182.936 16.7167C182.992 16.5887 183.048 16.4967 183.104 16.4407C183.168 16.3767 183.244 16.3367 183.332 16.3207C183.42 16.2967 183.544 16.2847 183.704 16.2847H185.492C185.58 16.2847 185.684 16.2967 185.804 16.3207C185.924 16.3447 186.028 16.4007 186.116 16.4887C186.228 16.5767 186.308 16.6767 186.356 16.7887C186.404 16.9007 186.428 17.0287 186.428 17.1727V30.6967ZM174.608 23.9767C174.608 24.5047 174.688 25.0007 174.848 25.4647C175.016 25.9207 175.252 26.3167 175.556 26.6527C175.86 26.9887 176.224 27.2567 176.648 27.4567C177.08 27.6487 177.556 27.7447 178.076 27.7447C178.612 27.7447 179.108 27.6487 179.564 27.4567C180.028 27.2567 180.428 26.9887 180.764 26.6527C181.108 26.3167 181.376 25.9207 181.568 25.4647C181.76 25.0007 181.856 24.5047 181.856 23.9767C181.856 23.4647 181.76 22.9767 181.568 22.5127C181.376 22.0487 181.108 21.6407 180.764 21.2887C180.428 20.9367 180.028 20.6607 179.564 20.4607C179.108 20.2527 178.612 20.1487 178.076 20.1487C177.556 20.1487 177.08 20.2527 176.648 20.4607C176.224 20.6607 175.86 20.9367 175.556 21.2887C175.252 21.6407 175.016 22.0487 174.848 22.5127C174.688 22.9767 174.608 23.4647 174.608 23.9767ZM189.454 16.4887C189.558 16.4007 189.666 16.3447 189.778 16.3207C189.89 16.2967 189.998 16.2847 190.102 16.2847H191.914C192.066 16.2847 192.19 16.3087 192.286 16.3567C192.39 16.4047 192.474 16.4727 192.538 16.5607C192.602 16.6407 192.654 16.7367 192.694 16.8487C192.742 16.9527 192.786 17.0687 192.826 17.1967L193.33 18.6487C193.554 18.3607 193.778 18.0687 194.002 17.7727C194.234 17.4687 194.506 17.1967 194.818 16.9567C195.13 16.7087 195.502 16.5047 195.934 16.3447C196.366 16.1847 196.894 16.1047 197.518 16.1047C198.614 16.1047 199.622 16.3087 200.542 16.7167C201.47 17.1167 202.266 17.6727 202.93 18.3847C203.602 19.0887 204.126 19.9207 204.502 20.8807C204.878 21.8327 205.066 22.8647 205.066 23.9767C205.066 25.0807 204.878 26.1127 204.502 27.0727C204.126 28.0327 203.602 28.8687 202.93 29.5807C202.266 30.2847 201.47 30.8407 200.542 31.2487C199.622 31.6567 198.614 31.8607 197.518 31.8607C196.998 31.8607 196.55 31.7967 196.174 31.6687C195.798 31.5487 195.462 31.3887 195.166 31.1887C194.878 30.9887 194.622 30.7687 194.398 30.5287C194.174 30.2887 193.954 30.0487 193.738 29.8087V35.4007C193.738 35.6407 193.666 35.8447 193.522 36.0127C193.378 36.1807 193.154 36.2647 192.85 36.2647H190.102C190.006 36.2647 189.902 36.2447 189.79 36.2047C189.678 36.1647 189.574 36.1087 189.478 36.0367C189.382 35.9647 189.302 35.8727 189.238 35.7607C189.174 35.6567 189.142 35.5367 189.142 35.4007V17.1727C189.142 17.0127 189.17 16.8807 189.226 16.7767C189.29 16.6727 189.366 16.5767 189.454 16.4887ZM200.662 23.9767C200.662 23.4647 200.578 22.9807 200.41 22.5247C200.242 22.0607 200.006 21.6567 199.702 21.3127C199.398 20.9687 199.034 20.6967 198.61 20.4967C198.186 20.2967 197.718 20.1967 197.206 20.1967C196.702 20.1967 196.222 20.2927 195.766 20.4847C195.318 20.6687 194.922 20.9247 194.578 21.2527C194.242 21.5727 193.966 21.9527 193.75 22.3927C193.542 22.8327 193.426 23.3007 193.402 23.7967V23.9767C193.402 24.5047 193.502 25.0007 193.702 25.4647C193.902 25.9287 194.174 26.3327 194.518 26.6767C194.862 27.0127 195.266 27.2807 195.73 27.4807C196.194 27.6807 196.686 27.7807 197.206 27.7807C197.718 27.7807 198.186 27.6807 198.61 27.4807C199.034 27.2807 199.398 27.0127 199.702 26.6767C200.006 26.3327 200.242 25.9287 200.41 25.4647C200.578 25.0007 200.662 24.5047 200.662 23.9767ZM220.073 29.7607C219.369 30.4087 218.577 30.9167 217.697 31.2847C216.817 31.6447 215.885 31.8247 214.901 31.8247C213.805 31.8247 212.769 31.6247 211.793 31.2247C210.817 30.8247 209.961 30.2727 209.225 29.5687C208.489 28.8567 207.905 28.0207 207.473 27.0607C207.041 26.1007 206.825 25.0567 206.825 23.9287C206.825 23.2247 206.909 22.5447 207.077 21.8887C207.253 21.2247 207.497 20.6047 207.809 20.0287C208.129 19.4527 208.513 18.9247 208.961 18.4447C209.417 17.9567 209.925 17.5407 210.485 17.1967C211.045 16.8527 211.653 16.5847 212.309 16.3927C212.965 16.2007 213.657 16.1047 214.385 16.1047C215.049 16.1047 215.693 16.1927 216.317 16.3687C216.941 16.5447 217.525 16.7927 218.069 17.1127C218.621 17.4327 219.125 17.8167 219.581 18.2647C220.037 18.7127 220.429 19.2047 220.757 19.7407C221.085 20.2687 221.337 20.8367 221.513 21.4447C221.697 22.0447 221.789 22.6647 221.789 23.3047C221.789 23.7207 221.781 24.0607 221.765 24.3247C221.757 24.5887 221.697 24.8007 221.585 24.9607C221.473 25.1127 221.285 25.2207 221.021 25.2847C220.765 25.3407 220.385 25.3687 219.881 25.3687H211.241C211.321 25.8807 211.481 26.3087 211.721 26.6527C211.969 26.9967 212.253 27.2727 212.573 27.4807C212.893 27.6807 213.233 27.8247 213.593 27.9127C213.953 28.0007 214.293 28.0447 214.613 28.0447C214.901 28.0447 215.197 28.0167 215.501 27.9607C215.805 27.8967 216.097 27.8167 216.377 27.7207C216.665 27.6167 216.925 27.5007 217.157 27.3727C217.397 27.2367 217.589 27.0967 217.733 26.9527C217.861 26.8487 217.969 26.7727 218.057 26.7247C218.153 26.6687 218.253 26.6407 218.357 26.6407C218.461 26.6407 218.565 26.6767 218.669 26.7487C218.781 26.8207 218.905 26.9247 219.041 27.0607L220.313 28.5007C220.401 28.6047 220.457 28.7007 220.481 28.7887C220.505 28.8687 220.517 28.9527 220.517 29.0407C220.517 29.2007 220.473 29.3407 220.385 29.4607C220.297 29.5727 220.193 29.6727 220.073 29.7607ZM214.301 19.7647C213.989 19.7647 213.685 19.8287 213.389 19.9567C213.101 20.0767 212.829 20.2407 212.573 20.4487C212.317 20.6567 212.085 20.8927 211.877 21.1567C211.677 21.4207 211.513 21.6887 211.385 21.9607H217.517C217.349 21.6487 217.165 21.3607 216.965 21.0967C216.773 20.8327 216.549 20.6007 216.293 20.4007C216.045 20.2007 215.757 20.0447 215.429 19.9327C215.109 19.8207 214.733 19.7647 214.301 19.7647Z" fill="#AA0028"/>
<circle cx="5.49201" cy="17.1087" r="5.49201" fill="#AA0028"/>
<circle cx="18.6728" cy="17.1087" r="5.49201" fill="#AA0028"/>
<circle cx="12.0824" cy="28.0927" r="5.49201" fill="#AA0028"/>
<path fill-rule="evenodd" clip-rule="evenodd" d="M14.2348 11.4354C15.0105 9.031 14.4438 6.28772 12.5346 4.37853C10.6255 2.46937 7.88223 1.90264 5.47787 2.67834C4.70213 5.08272 5.26885 7.82601 7.17803 9.73519C9.0872 11.6444 11.8304 12.2111 14.2348 11.4354Z" fill="#039400" fill-opacity="0.8"/>
<path fill-rule="evenodd" clip-rule="evenodd" d="M9.98697 11.4353C12.3913 12.211 15.1346 11.6443 17.0438 9.7351C18.953 7.82593 19.5197 5.08268 18.744 2.67832C16.3396 1.90259 13.5963 2.46931 11.6872 4.37849C9.77799 6.28766 9.21126 9.03091 9.98697 11.4353Z" fill="#04C600" fill-opacity="0.8"/>
</svg>
